<svg width="54" height="36" xmlns="http://www.w3.org/2000/svg">
    <g fill-rule="nonzero" fill="none">
        <path d="M38.957 16.587s-2.244.645-6.583 3.297c-3.89 2.382-5.416 3.983-5.416 3.983l-12-8.25s5.048-3.694 9.267-.865l5.659 3.861.69-.451L14.96 7.28s2.244-.645 6.58-3.296C25.433 1.6 26.958 0 26.958 0L38.96 8.25s-5.048 3.693-9.268.865l-5.659-3.863-.69.451 15.615 10.884z" fill="#E20A17"/>
        <path d="M29.662 27.842h-9.134v2.02h4.412l-4.568 4.242v1.693h9.273v-2.029H25.03l4.63-4.23zM15.15 36c3.653 0 4.588-.928 4.588-2.974v-5.184h-2.894v4.874c0 .818-.704 1.306-1.694 1.306-1.03 0-1.693-.49-1.693-1.32v-4.86h-2.894v5.184c0 2.046.935 2.974 4.587 2.974M34.965 36c3.653 0 4.588-.928 4.588-2.974v-5.184h-2.895v4.874c0 .818-.704 1.306-1.693 1.306-1.03 0-1.696-.49-1.696-1.32v-4.86h-2.893v5.184c0 2.046.936 2.974 4.589 2.974M54 27.842h-3.018v7.955H54v-7.955zM50.523 27.842h-3.97l-3.213 2.745v-2.745H40.32v7.955h3.019v-2.822l2.983 2.822h4.055l-4.413-4.082zM3.43 30.04c0-.615.916-.635 1.225-.635.31 0 1.008.123 1.483.898h3.413c0-1.499-1.428-2.691-4.886-2.691-3.84 0-4.493 1.676-4.493 2.639 0 1.775 1.382 2.295 4.387 2.613.258.027 1.821-.046 1.821.702 0 .553-.879.59-1.202.59-.322 0-.923-.052-1.42-.932H0c0 1.747 1.184 2.756 5.172 2.756 3.673 0 4.648-1.491 4.648-2.625 0-1.102-.76-2.222-3.891-2.62-1.306-.169-2.5-.24-2.5-.695" fill="#039"/>
    </g>
</svg>
