<svg width="64" height="23" xmlns="http://www.w3.org/2000/svg">
    <g fill="none" fill-rule="evenodd">
        <path d="M19.48 23h7.175L42.104 0H36.3c-1.306 0-2.147.544-2.447 1.027L19.48 23z" fill="#04418C"/>
        <path fill="#E23229" d="M24.779.077h-5.472l6.418 9.518-6.328 10.04h5.464l6.651-10.04z"/>
        <path d="m11.245 13.16-4.722-2.905C4.571 8.92 3.858 6.805 4.49 4.146c.63-2.399 3.235-4.07 5.787-4.07h6.448l3.934 5.565h-9.106c-1.08 0-.495.927.075 1.249l6.036 3.564c2.064 1.18 2.147 3.955 1.809 5.388-.586 2.62-2.597 4.307-6.606 4.307H0l3.828-5.894h7.394c.548 0 .496-.804.023-1.096zM52.267 20.149l6.126-9.12v9.12H64V0h-4c-.662 0-1.194.138-1.607.337-.406.2-.69.452-.841.69l-5.405 8.285V0h-3.993c-.66 0-1.194.138-1.606.337-.406.2-.691.452-.841.69l-12.483 19.16H40.4l6.148-9.158v9.12h5.72z" fill="#04418C"/>
    </g>
</svg>
