<svg width="63" height="22" xmlns="http://www.w3.org/2000/svg">
    <path d="M3.939 0S-.42 2.386.033 7.93C.484 13.474 6.227 18.5 6.27 18.652l.017.04-3.468.761S2.528 21.1 1.586 22l33.358-7.495-.233 1.492 2.897-.65.317-1.547L63 8.2l-.278-1.35-1.32.27-1.362-.995s-.245.97-1.216.858c-1.048-.12-.99-.827-.913-1.497l.364-2.508-3.337.017-.098.772c-1.319-1.023-2.94-.84-2.94-.84-3.394.312-4.08 3.08-4.08 3.08l-3.313 1.941s-.167-3.23-3.795-2.822c0 0-2.505.332-4.292 2.108l-.19.863-4.015 2.71s-.072-2.208-2.588-3.251c-.277-.116-6.583 6.26-7.518 7.048 0 0-1.12.876-2.33.218l3.438-3.181s-1.688-3.67-5.363-2.077c0 0-2.39.952-2.523 3.308L8.876 17.77s-.452-7.029 6.579-7.562c0 0-1.527-1.503-2.356-3.407-.03-.072.001-.114.001-.114s-3.223 1.007-4.868 4.437c-.024.05-1.063 2.02-1.264 5.442l-.005.054s-5.817-6.433-.437-12.47c.033-.037.005-.054.005-.054S4.471 2.284 3.94 0zm15.605 12.012c.662-.151.98.304.98.304l-1.75 1.606c-.858-.946.21-1.66.258-1.69.19-.113.36-.185.512-.22zm20.291-4.48c.79-.192 1.175.472 1.218.529.76 1.008-.139 1.75-.142 1.751-.937.47-1.527-.386-1.548-.42-.76-1.224.311-1.807.311-1.807.057-.02.108-.04.161-.053zm11.264-2.008c.745-.18 1.11.448 1.152.501.715.95-.137 1.645-.14 1.646-.883.443-1.434-.357-1.454-.389-.716-1.154.29-1.706.29-1.706.053-.02.102-.04.152-.052zM27.55 11.331s.013.082.052.119c1.086 1.022-.31 1.885-.31 1.885-.604.197-.525.476-.525.476l.113.516-3.707.771 4.377-3.767zm-12 3.054c.84 1.58 2.91 1.685 2.91 1.685l-7.126 1.48 4.217-3.165zm20.197-4.163-.446 2.291-3.21.721c.386-.536.245-.893.245-.893l3.411-2.119zm12.016-2.586c.247 1.534 1.238 2.034 1.238 2.034l-5.25 1.119c.521-.363.594-1.102.594-1.102s3.41-2.107 3.418-2.051zm-9.375 3.634c.181.288.755.458.755.458l-.922.234.167-.692zm16.668-3.64c.26.353.913.553.913.553l-1.354.304a2.11 2.11 0 0 0 .44-.858z" fill="#2E3192" fill-rule="nonzero"/>
</svg>
