<svg width="68" height="15" xmlns="http://www.w3.org/2000/svg">
    <g fill="#48217A" fill-rule="nonzero">
        <path d="M7.402 0C3.314 0 0 3.358 0 7.5 0 11.642 3.314 15 7.402 15c4.089 0 7.403-3.358 7.403-7.5 0-4.142-3.314-7.5-7.403-7.5zm0 14.153C3.775 14.153.835 11.174.835 7.5c0-3.675 2.94-6.654 6.567-6.654 3.628 0 6.568 2.979 6.568 6.654 0 3.674-2.94 6.653-6.568 6.653z"/>
        <path d="M12.783 10.52 11.708 9.25a.183.183 0 0 0-.22-.046.566.566 0 0 1-.531-.022.577.577 0 0 1-.277-.395 1.468 1.468 0 0 0-.702-1.004L9.497 7.5l2.736-1.6-.338-.595L8.82 7.104l-.37-.216v-.433l3.075-1.799-.339-.594-2.736 1.6V5.1c0-.448-.197-.848-.508-1.118a.582.582 0 0 1 .048-.918.188.188 0 0 0 .07-.216l-.549-1.579a.114.114 0 0 0-.108-.079.114.114 0 0 0-.108.08l-.55 1.578a.189.189 0 0 0 .07.216h.001a.582.582 0 0 1 .048.918c-.311.27-.508.67-.508 1.118v.563l-2.736-1.6-.34.593 3.076 1.8v.432l-.37.216-3.075-1.799-.338.595 2.736 1.6-.481.282a1.467 1.467 0 0 0-.702 1.004.577.577 0 0 1-.276.395.566.566 0 0 1-.532.022.184.184 0 0 0-.22.046l-1.075 1.27a.118.118 0 0 0-.013.136.115.115 0 0 0 .121.056l1.624-.308a.188.188 0 0 0 .15-.17.581.581 0 0 1 .284-.456.567.567 0 0 1 .476-.045c.387.138.828.11 1.21-.114l.482-.28v3.2h.677V8.941l.37-.217.37.217v3.597h.677V9.337l.48.28c.383.225.825.253 1.21.115a.565.565 0 0 1 .477.044.58.58 0 0 1 .284.456.188.188 0 0 0 .15.17l1.623.309a.116.116 0 0 0 .122-.056.119.119 0 0 0-.014-.135zM6.356 8.545l-.903.528a.367.367 0 0 1-.505-.137.378.378 0 0 1 .135-.512l.904-.528.37.216v.433h-.001zm.677-3.542c0-.207.166-.375.37-.375s.37.168.37.375v1.056l-.37.216-.37-.216V5.003zm.795 2.746-.425.248-.426-.249v-.497l.426-.249.425.249v.498zm2.03 1.187a.368.368 0 0 1-.506.137l-.902-.529v-.432l.37-.216.902.528a.378.378 0 0 1 .136.512z"/>
        <g>
            <path d="M56.691 5.976h-2.47V.972h-2.258v13.056h2.257V8.294h2.471v5.734h2.306V.972h-2.306zM16.453.972l2.505 8.005v5.05h2.507V8.719L24.06.972h-2.11l-1.704 5.086L18.704.972zM38.22.972l-1.081 6.21-1.254-6.21h-3.523v13.056h2.02V4.186l1.724 8.556h1.887l1.53-8.695v9.98h2.368V.973zM65.874.972h-3.49l-2.355 13.056h2.088l.5-3.038h2.597l.485 3.038H68L65.874.972zm-2.9 7.841.961-5.839.932 5.84h-1.892zM45.278.972l-2.355 13.056h2.088l.5-3.038h2.598l.485 3.038h2.3L48.768.972h-3.49zm.591 7.841.96-5.839.933 5.84h-1.893zM25.676.972 23.32 14.028h2.09l.5-3.038h2.597l.485 3.038h2.3L29.166.972h-3.49zm.591 7.841.96-5.839.932 5.84h-1.892z"/>
        </g>
    </g>
</svg>
